<svg xmlns="http://www.w3.org/2000/svg" xmlns:svg="http://www.w3.org/2000/svg" id="svg2" width="128" height="128" version="1.1"><defs id="defs4"><linearGradient id="linearGradient3854"><stop style="stop-color:#5fc1ff;stop-opacity:1" id="stop3856" offset="0"/><stop style="stop-color:#5fc1ff;stop-opacity:0" id="stop3858" offset="1"/></linearGradient><linearGradient id="linearGradient3840"><stop style="stop-color:#78c7f5;stop-opacity:1" id="stop3842" offset="0"/><stop style="stop-color:#bce2fc;stop-opacity:.58536583" id="stop3844" offset="1"/></linearGradient></defs><metadata id="metadata7"/><g id="layer1" transform="translate(0,-924.36217)"><path style="color:#000;fill:#414141;fill-opacity:1;fill-rule:nonzero;stroke:#414141;stroke-width:.48659338;marker:none;visibility:visible;display:inline;overflow:visible;enable-background:accumulate;stroke-opacity:1;stroke-miterlimit:4;stroke-dasharray:none" id="path2818" d="m 71.122978,9.913168 -14.40703,8.317903 0,-16.6358058 14.40703,8.3179028 z" transform="matrix(-0.73323827,0,0,-1.44,132.15009,954.63713)"/><path style="color:#000;fill:#43a0db;fill-opacity:1;fill-rule:nonzero;stroke:#ccc;stroke-width:.48659338000000002;marker:none;visibility:visible;display:inline;overflow:visible;enable-background:accumulate;stroke-opacity:1;stroke-miterlimit:4;stroke-dasharray:none" id="path2818-9" d="m 71.122978,9.913168 -14.40703,8.317903 0,-16.6358058 14.40703,8.3179028 z" transform="matrix(-0.73323827,0,0,-1.44,100.15009,954.63713)"/><path style="color:#000;fill:#5fc1ff;fill-opacity:1;fill-rule:nonzero;stroke:#ccc;stroke-width:.48659338000000002;marker:none;visibility:visible;display:inline;overflow:visible;enable-background:accumulate;stroke-opacity:1;stroke-miterlimit:4;stroke-dasharray:none" id="path2818-8" d="m 71.122978,9.913168 -14.40703,8.317903 0,-16.6358058 14.40703,8.3179028 z" transform="matrix(-0.73323827,0,0,-1.44,68.15009,954.63713)"/><path style="color:#000;fill:#5fc1ff;fill-opacity:1;fill-rule:nonzero;stroke:#ccc;stroke-width:.48659338000000002;marker:none;visibility:visible;display:inline;overflow:visible;enable-background:accumulate;stroke-opacity:1;stroke-miterlimit:4;stroke-dasharray:none" id="path2818-2" d="m 71.122978,9.913168 -14.40703,8.317903 0,-16.6358058 14.40703,8.3179028 z" transform="matrix(0.73323827,0,0,1.44,-36.15009,958.08721)"/><path style="color:#000;fill:#43a0db;fill-opacity:1;fill-rule:nonzero;stroke:#ccc;stroke-width:.48659338000000002;marker:none;visibility:visible;display:inline;overflow:visible;enable-background:accumulate;stroke-opacity:1;stroke-miterlimit:4;stroke-dasharray:none" id="path2818-2-4" d="m 71.122978,9.913168 -14.40703,8.317903 0,-16.6358058 14.40703,8.3179028 z" transform="matrix(0.73323827,0,0,1.44,-4.1500895,958.08721)"/><path style="color:#000;fill:#414141;fill-opacity:1;fill-rule:nonzero;stroke:#414141;stroke-width:.48659338;marker:none;visibility:visible;display:inline;overflow:visible;enable-background:accumulate;stroke-opacity:1;stroke-miterlimit:4;stroke-dasharray:none" id="path2818-2-4-8" d="m 71.122978,9.913168 -14.40703,8.317903 0,-16.6358058 14.40703,8.3179028 z" transform="matrix(0.73323827,0,0,1.44,27.84991,958.08721)"/><path style="color:#000;fill:#5fc1ff;fill-opacity:1;fill-rule:nonzero;stroke:#ccc;stroke-width:.48659338000000002;marker:none;visibility:visible;display:inline;overflow:visible;enable-background:accumulate;stroke-opacity:1;stroke-miterlimit:4;stroke-dasharray:none" id="path2818-2-4-9" d="m 71.122978,9.913168 -14.40703,8.317903 0,-16.6358058 14.40703,8.3179028 z" transform="matrix(0,0.73323827,-1.44,0,30.274962,984.21208)"/><path style="color:#000;fill:#43a0db;fill-opacity:1;fill-rule:nonzero;stroke:#ccc;stroke-width:.48659338000000002;marker:none;visibility:visible;display:inline;overflow:visible;enable-background:accumulate;stroke-opacity:1;stroke-miterlimit:4;stroke-dasharray:none" id="path2818-2-4-9-0" d="m 71.122978,9.913168 -14.40703,8.317903 0,-16.6358058 14.40703,8.3179028 z" transform="matrix(0,0.73323827,-1.44,0,62.274962,984.21208)"/><path style="color:#000;fill:#414141;fill-opacity:1;fill-rule:nonzero;stroke:#414141;stroke-width:.48659338;marker:none;visibility:visible;display:inline;overflow:visible;enable-background:accumulate;stroke-opacity:1;stroke-miterlimit:4;stroke-dasharray:none" id="path2818-2-4-9-2" d="m 71.122978,9.913168 -14.40703,8.317903 0,-16.6358058 14.40703,8.3179028 z" transform="matrix(0,0.73323827,-1.44,0,94.274962,984.21208)"/><path style="color:#000;fill:#5fc1ff;fill-opacity:1;fill-rule:nonzero;stroke:#ccc;stroke-width:.48659338000000002;marker:none;visibility:visible;display:inline;overflow:visible;enable-background:accumulate;stroke-opacity:1;stroke-miterlimit:4;stroke-dasharray:none" id="path2818-2-4-9-7" d="m 71.122978,9.913168 -14.40703,8.317903 0,-16.6358058 14.40703,8.3179028 z" transform="matrix(0,-0.73323827,1.44,0,1.7250381,1056.5123)"/><path style="color:#000;fill:#43a0db;fill-opacity:1;fill-rule:nonzero;stroke:#ccc;stroke-width:.48659338000000002;marker:none;visibility:visible;display:inline;overflow:visible;enable-background:accumulate;stroke-opacity:1;stroke-miterlimit:4;stroke-dasharray:none" id="path2818-2-4-9-7-3" d="m 71.122978,9.913168 -14.40703,8.317903 0,-16.6358058 14.40703,8.3179028 z" transform="matrix(0,-0.73323827,1.44,0,33.725038,1056.5123)"/><path style="color:#000;fill:#414141;fill-opacity:1;fill-rule:nonzero;stroke:#414141;stroke-width:.48659338;marker:none;visibility:visible;display:inline;overflow:visible;enable-background:accumulate;stroke-opacity:1;stroke-miterlimit:4;stroke-dasharray:none" id="path2818-2-4-9-7-9" d="m 71.122978,9.913168 -14.40703,8.317903 0,-16.6358058 14.40703,8.3179028 z" transform="matrix(0,-0.73323827,1.44,0,65.725038,1056.5123)"/></g></svg>